<?xml version="1.0" encoding="UTF-8"?><svg id="Ebene_2" xmlns="http://www.w3.org/2000/svg" viewBox="0 0 54.53 54.53"><defs><style>.cls-1{fill:#fff;}.cls-2{fill:#00a99d;}</style></defs><g id="Ebene_2-2"><rect class="cls-2" width="54.53" height="54.53" rx="10.98" ry="10.98"/><path class="cls-1" d="m46.12,18.78l-6.85-6.85h-21.33l-3.46,3.46c-.22-.07-.46-.13-.71-.13-1.24,0-2.25,1.01-2.25,2.25s1.01,2.25,2.25,2.25,2.25-1.01,2.25-2.25c0-.25-.05-.48-.12-.71l2.87-2.88h19.68l5.68,5.68v11.33l-3.89,3.89c-.22-.07-.46-.12-.71-.12-1.24,0-2.25,1.01-2.25,2.25s1.01,2.25,2.25,2.25,2.25-1.01,2.25-2.25c0-.25-.05-.48-.12-.71l4.48-4.48v-12.98Z"/><path class="cls-1" d="m35.8,30.84l-4.1-4.1h-6.9c-.37-.73-1.12-1.24-2-1.24-1.24,0-2.25,1.01-2.25,2.25s1.01,2.25,2.25,2.25c.88,0,1.64-.51,2.01-1.25h6.07l4.93,4.93,4.48-4.48v-5.41c.74-.37,1.25-1.12,1.25-2,0-1.24-1.01-2.25-2.25-2.25s-2.25,1.01-2.25,2.25c0,.88.51,1.63,1.25,2v4.58l-2.48,2.48Z"/><path class="cls-1" d="m32.83,16.93c-.88,0-1.63.51-2,1.25h-10.79l-4.21,4.21v2.41c-.74.37-1.25,1.12-1.25,2,0,1.24,1.01,2.25,2.25,2.25s2.25-1.01,2.25-2.25c0-.88-.51-1.63-1.25-2v-1.58l3.04-3.03h9.96c.37.74,1.12,1.25,2,1.25,1.24,0,2.25-1.01,2.25-2.25s-1.01-2.25-2.25-2.25Z"/><path class="cls-1" d="m36.39,44.35v-4.94l-6.27-6.27h-14.94l-3.52-3.52v-4.15c.74-.37,1.25-1.12,1.25-2,0-1.24-1.01-2.25-2.25-2.25s-2.25,1.01-2.25,2.25c0,.88.51,1.63,1.25,2v4.98l4.69,4.69h14.94l5.1,5.1v4.11c-.74.37-1.25,1.12-1.25,2,0,1.24,1.01,2.25,2.25,2.25s2.25-1.01,2.25-2.25c0-.88-.51-1.63-1.25-2Z"/></g></svg>